<svg id="dhl_icons" xmlns="http://www.w3.org/2000/svg" viewBox="0 0 48 48"><path d="M37,9.5A3.5,3.5,0,1,1,40.5,13,3.5,3.5,0,0,1,37,9.5ZM42.4817,15H38.4891a3.5946,3.5946,0,0,0-2.5421,1.053L32,20V15H16v5l-3.947-3.947A3.5946,3.5946,0,0,0,9.5109,15H5.5183A1.5182,1.5182,0,0,0,4,16.5183V28.4426a3.9782,3.9782,0,0,0,.1531,1.0933l1.5087,5.2805a3.9789,3.9789,0,0,1-.0511,2.3514L4,42H7l2.3894-4.7788a3.9788,3.9788,0,0,0,.3428-2.56l-.3205-1.6023,1.5174,1.138a3.9788,3.9788,0,0,1,1.4386,2.09L14,42h3L16.1249,35a3.9784,3.9784,0,0,0-.71-1.8193L11,27V21.4l5,3.5V27H32V24.9l5-3.5V27l-4.4145,6.18A3.9784,3.9784,0,0,0,31.8751,35L31,42h3l1.6323-5.7129a3.9788,3.9788,0,0,1,1.4386-2.09l1.5174-1.138-.32,1.6023a3.9788,3.9788,0,0,0,.3428,2.56L41,42h3l-1.6107-4.8322a3.9789,3.9789,0,0,1-.0511-2.3514l1.5087-5.28A3.9782,3.9782,0,0,0,44,28.4426V16.5183A1.5182,1.5182,0,0,0,42.4817,15ZM7.5,13A3.5,3.5,0,1,0,4,9.5,3.5,3.5,0,0,0,7.5,13ZM32,11H16v2H32Z" fill="#d70511"/>
</svg>
