<svg id="dhl_icons" xmlns="http://www.w3.org/2000/svg" viewBox="0 0 48 48"><path d="m12,35h8.9512l3.0488,4.6433,3.0489-4.6433h8.9511l4,8H8l4-8Zm2.0667-14.2676c-.2739-.5768-.5009-1.1814-.6741-1.8092-.2557-.9307-.3926-1.9097-.3926-2.9227,0-6.0729,4.9258-11.0005,10.9999-11.0005s11.0001,4.9276,11.0001,11.0005c0,1.0131-.1368,1.9921-.3925,2.9227-.1733.6278-.4005,1.2324-.6742,1.8092-.2469.5186-9.9333,15.2676-9.9333,15.2676,0,0-9.6863-14.749-9.9333-15.2676Zm9.9333-.2324c2.4853,0,4.5-2.0146,4.5-4.5s-2.0147-4.5-4.5-4.5-4.5,2.0146-4.5,4.5,2.0147,4.5,4.5,4.5Z" fill="#d70511"/></svg>